<?xml version="1.0" encoding="UTF-8" standalone="no"?>
<!DOCTYPE svg PUBLIC "-//W3C//DTD SVG 1.1//EN"
 "http://www.w3.org/Graphics/SVG/1.1/DTD/svg11.dtd">
<!-- Generated by graphviz version 12.0.0 (20240803.0821)
 -->
<!-- Title: Immunopipe Pages: 1 -->
<svg width="310pt" height="447pt"
 viewBox="0.00 0.00 309.50 446.50" xmlns="http://www.w3.org/2000/svg" xmlns:xlink="http://www.w3.org/1999/xlink">
<g id="graph0" class="graph" transform="scale(1 1) rotate(0) translate(4 442.5)">
<title>Immunopipe</title>
<polygon fill="white" stroke="none" points="-4,4 -4,-442.5 305.5,-442.5 305.5,4 -4,4"/>
<text text-anchor="middle" x="150.75" y="-421.2" font-family="Helvetica,sans-Serif" font-size="14.00">Immunopipe</text>
<text text-anchor="middle" x="150.75" y="-403.95" font-family="Helvetica,sans-Serif" font-size="14.00"> </text>
<!-- ImmunarchLoading -->
<g id="node1" class="node">
<title>ImmunarchLoading</title>
<g id="a_node1"><a xlink:title="Immuarch &#45; Loading data">
<path fill="none" stroke="black" d="M137.62,-324C137.62,-324 29.38,-324 29.38,-324 23.38,-324 17.38,-318 17.38,-312 17.38,-312 17.38,-300 17.38,-300 17.38,-294 23.38,-288 29.38,-288 29.38,-288 137.62,-288 137.62,-288 143.62,-288 149.62,-294 149.62,-300 149.62,-300 149.62,-312 149.62,-312 149.62,-318 143.62,-324 137.62,-324"/>
<text text-anchor="middle" x="83.5" y="-301.73" font-family="Helvetica,sans-Serif" font-size="12.00">ImmunarchLoading</text>
</a>
</g>
</g>
<!-- IntegratingTCR -->
<g id="node2" class="node">
<title>IntegratingTCR</title>
<g id="a_node2"><a xlink:title="Attach TCR clone information as meta columns to Seurat object">
<path fill="none" stroke="black" d="M164.12,-108C164.12,-108 82.88,-108 82.88,-108 76.88,-108 70.88,-102 70.88,-96 70.88,-96 70.88,-84 70.88,-84 70.88,-78 76.88,-72 82.88,-72 82.88,-72 164.12,-72 164.12,-72 170.12,-72 176.12,-78 176.12,-84 176.12,-84 176.12,-96 176.12,-96 176.12,-102 170.12,-108 164.12,-108"/>
<text text-anchor="middle" x="123.5" y="-85.72" font-family="Helvetica,sans-Serif" font-size="12.00">IntegratingTCR</text>
</a>
</g>
</g>
<!-- ImmunarchLoading&#45;&gt;IntegratingTCR -->
<g id="edge7" class="edge">
<title>ImmunarchLoading&#45;&gt;IntegratingTCR</title>
<path fill="none" stroke="black" d="M86.71,-287.85C93.67,-250.6 110.22,-162.07 118.54,-117.54"/>
<polygon fill="black" stroke="black" points="121.28,-118.1 120,-109.72 115.78,-117.07 121.28,-118.1"/>
</g>
<!-- Immunarch -->
<g id="node9" class="node">
<title>Immunarch</title>
<g id="a_node9"><a xlink:title="Exploration of Single&#45;cell and Bulk T&#45;cell/Antibody Immune Repertoires">
<polygon fill="none" stroke="black" points="85,-36 0,-36 0,0 85,0 85,-36"/>
<text text-anchor="middle" x="42.5" y="-13.72" font-family="Helvetica,sans-Serif" font-size="12.00">Immunarch</text>
</a>
</g>
</g>
<!-- ImmunarchLoading&#45;&gt;Immunarch -->
<g id="edge1" class="edge">
<title>ImmunarchLoading&#45;&gt;Immunarch</title>
<path fill="none" stroke="black" d="M81,-287.54C74.06,-239.16 54.56,-103.15 46.29,-45.43"/>
<polygon fill="black" stroke="black" points="49.09,-45.25 45.19,-37.73 43.55,-46.05 49.09,-45.25"/>
</g>
<!-- SeuratClusterStats -->
<g id="node3" class="node">
<title>SeuratClusterStats</title>
<polygon fill="none" stroke="black" points="230.38,-36 102.62,-36 102.62,0 230.38,0 230.38,-36"/>
<text text-anchor="middle" x="166.5" y="-13.72" font-family="Helvetica,sans-Serif" font-size="12.00">SeuratClusterStats</text>
</g>
<!-- IntegratingTCR&#45;&gt;SeuratClusterStats -->
<g id="edge2" class="edge">
<title>IntegratingTCR&#45;&gt;SeuratClusterStats</title>
<path fill="none" stroke="black" d="M134.13,-71.7C139.23,-63.39 145.44,-53.28 151.06,-44.14"/>
<polygon fill="black" stroke="black" points="153.4,-45.68 155.2,-37.39 148.63,-42.75 153.4,-45.68"/>
</g>
<!-- IntegratingTCR&#45;&gt;Immunarch -->
<g id="edge8" class="edge">
<title>IntegratingTCR&#45;&gt;Immunarch</title>
<path fill="none" stroke="black" d="M103.48,-71.7C93.26,-62.86 80.67,-51.99 69.59,-42.41"/>
<polygon fill="black" stroke="black" points="71.6,-40.45 63.72,-37.34 67.94,-44.69 71.6,-40.45"/>
</g>
<!-- SampleInfo -->
<g id="node4" class="node">
<title>SampleInfo</title>
<g id="a_node4"><a xlink:title="List sample information and perform statistics">
<polygon fill="none" stroke="black" points="153.5,-396 77.72,-378 153.5,-360 229.28,-378 153.5,-396"/>
<text text-anchor="middle" x="153.5" y="-373.73" font-family="Helvetica,sans-Serif" font-size="12.00">SampleInfo</text>
</a>
</g>
</g>
<!-- SampleInfo&#45;&gt;ImmunarchLoading -->
<g id="edge4" class="edge">
<title>SampleInfo&#45;&gt;ImmunarchLoading</title>
<path fill="none" stroke="black" d="M139.67,-363.17C130.43,-353.93 118.04,-341.54 107.25,-330.75"/>
<polygon fill="black" stroke="black" points="109.48,-329.02 101.85,-325.35 105.52,-332.98 109.48,-329.02"/>
</g>
<!-- SeuratPreparing -->
<g id="node8" class="node">
<title>SeuratPreparing</title>
<g id="a_node8"><a xlink:title="Load, prepare and apply QC to data, using `Seurat`">
<path fill="none" stroke="black" d="M268.88,-324C268.88,-324 180.12,-324 180.12,-324 174.12,-324 168.12,-318 168.12,-312 168.12,-312 168.12,-300 168.12,-300 168.12,-294 174.12,-288 180.12,-288 180.12,-288 268.88,-288 268.88,-288 274.88,-288 280.88,-294 280.88,-300 280.88,-300 280.88,-312 280.88,-312 280.88,-318 274.88,-324 268.88,-324"/>
<text text-anchor="middle" x="224.5" y="-301.73" font-family="Helvetica,sans-Serif" font-size="12.00">SeuratPreparing</text>
</a>
</g>
</g>
<!-- SampleInfo&#45;&gt;SeuratPreparing -->
<g id="edge3" class="edge">
<title>SampleInfo&#45;&gt;SeuratPreparing</title>
<path fill="none" stroke="black" d="M167.53,-363.17C176.9,-353.93 189.47,-341.54 200.41,-330.75"/>
<polygon fill="black" stroke="black" points="202.17,-332.95 205.9,-325.34 198.24,-328.96 202.17,-332.95"/>
</g>
<!-- SeuratClustering -->
<g id="node5" class="node">
<title>SeuratClustering</title>
<g id="a_node5"><a xlink:title="Cluster all T cells or selected T cells selected by `TCellSelection`.">
<path fill="none" stroke="black" d="M270.38,-180C270.38,-180 178.62,-180 178.62,-180 172.62,-180 166.62,-174 166.62,-168 166.62,-168 166.62,-156 166.62,-156 166.62,-150 172.62,-144 178.62,-144 178.62,-144 270.38,-144 270.38,-144 276.38,-144 282.38,-150 282.38,-156 282.38,-156 282.38,-168 282.38,-168 282.38,-174 276.38,-180 270.38,-180"/>
<text text-anchor="middle" x="224.5" y="-157.72" font-family="Helvetica,sans-Serif" font-size="12.00">SeuratClustering</text>
</a>
</g>
</g>
<!-- SeuratClustering&#45;&gt;IntegratingTCR -->
<g id="edge9" class="edge">
<title>SeuratClustering&#45;&gt;IntegratingTCR</title>
<path fill="none" stroke="black" d="M199.27,-143.52C186.16,-134.43 169.98,-123.22 155.95,-113.49"/>
<polygon fill="black" stroke="black" points="157.82,-111.38 149.65,-109.12 154.63,-115.98 157.82,-111.38"/>
</g>
<!-- ClusterMarkers -->
<g id="node7" class="node">
<title>ClusterMarkers</title>
<g id="a_node7"><a xlink:title="Markers for clusters of all or selected T cells.">
<polygon fill="none" stroke="black" points="300.88,-108 194.12,-108 194.12,-72 300.88,-72 300.88,-108"/>
<text text-anchor="middle" x="247.5" y="-85.72" font-family="Helvetica,sans-Serif" font-size="12.00">ClusterMarkers</text>
</a>
</g>
</g>
<!-- SeuratClustering&#45;&gt;ClusterMarkers -->
<g id="edge6" class="edge">
<title>SeuratClustering&#45;&gt;ClusterMarkers</title>
<path fill="none" stroke="black" d="M230.19,-143.7C232.83,-135.64 236.03,-125.89 238.96,-116.98"/>
<polygon fill="black" stroke="black" points="241.57,-118.02 241.41,-109.54 236.25,-116.27 241.57,-118.02"/>
</g>
<!-- ModuleScoreCalculator -->
<g id="node6" class="node">
<title>ModuleScoreCalculator</title>
<g id="a_node6"><a xlink:title="Calculate the module scores for each cell">
<path fill="none" stroke="black" d="M289.5,-252C289.5,-252 159.5,-252 159.5,-252 153.5,-252 147.5,-246 147.5,-240 147.5,-240 147.5,-228 147.5,-228 147.5,-222 153.5,-216 159.5,-216 159.5,-216 289.5,-216 289.5,-216 295.5,-216 301.5,-222 301.5,-228 301.5,-228 301.5,-240 301.5,-240 301.5,-246 295.5,-252 289.5,-252"/>
<text text-anchor="middle" x="224.5" y="-229.72" font-family="Helvetica,sans-Serif" font-size="12.00">ModuleScoreCalculator</text>
</a>
</g>
</g>
<!-- ModuleScoreCalculator&#45;&gt;SeuratClustering -->
<g id="edge5" class="edge">
<title>ModuleScoreCalculator&#45;&gt;SeuratClustering</title>
<path fill="none" stroke="black" d="M224.5,-215.7C224.5,-207.81 224.5,-198.3 224.5,-189.55"/>
<polygon fill="black" stroke="black" points="227.3,-189.62 224.5,-181.62 221.7,-189.62 227.3,-189.62"/>
</g>
<!-- SeuratPreparing&#45;&gt;ModuleScoreCalculator -->
<g id="edge10" class="edge">
<title>SeuratPreparing&#45;&gt;ModuleScoreCalculator</title>
<path fill="none" stroke="black" d="M224.5,-287.7C224.5,-279.81 224.5,-270.3 224.5,-261.55"/>
<polygon fill="black" stroke="black" points="227.3,-261.62 224.5,-253.62 221.7,-261.62 227.3,-261.62"/>
</g>
</g>
</svg>
