<?xml version="1.0" encoding="UTF-8" standalone="no"?>
<!DOCTYPE svg PUBLIC "-//W3C//DTD SVG 1.1//EN"
 "http://www.w3.org/Graphics/SVG/1.1/DTD/svg11.dtd">
<!-- Generated by graphviz version 3.0.0 (20220315.2325)
 -->
<!-- Title: Immunopipe Pages: 1 -->
<svg width="288pt" height="442pt"
 viewBox="0.00 0.00 288.00 442.00" xmlns="http://www.w3.org/2000/svg" xmlns:xlink="http://www.w3.org/1999/xlink">
<g id="graph0" class="graph" transform="scale(1 1) rotate(0) translate(4 438)">
<title>Immunopipe</title>
<polygon fill="white" stroke="transparent" points="-4,4 -4,-438 284,-438 284,4 -4,4"/>
<text text-anchor="middle" x="140" y="-418.8" font-family="Helvetica,sans-Serif" font-size="14.00">Immunopipe</text>
<text text-anchor="middle" x="140" y="-403.8" font-family="Helvetica,sans-Serif" font-size="14.00"> </text>
<!-- Immunarch -->
<g id="node1" class="node">
<title>Immunarch</title>
<g id="a_node1"><a xlink:title="Exploration of Single&#45;cell and Bulk T&#45;cell/Antibody Immune Repertoires">
<polygon fill="none" stroke="black" points="76,-36 0,-36 0,0 76,0 76,-36"/>
<text text-anchor="middle" x="38" y="-14.9" font-family="Helvetica,sans-Serif" font-size="12.00">Immunarch</text>
</a>
</g>
</g>
<!-- ClusterMarkers -->
<g id="node2" class="node">
<title>ClusterMarkers</title>
<g id="a_node2"><a xlink:title="Markers for clusters of all or selected T cells.">
<polygon fill="none" stroke="black" points="280,-108 182,-108 182,-72 280,-72 280,-108"/>
<text text-anchor="middle" x="231" y="-86.9" font-family="Helvetica,sans-Serif" font-size="12.00">ClusterMarkers</text>
</a>
</g>
</g>
<!-- SeuratClusterStats -->
<g id="node3" class="node">
<title>SeuratClusterStats</title>
<polygon fill="none" stroke="black" points="211.5,-36 94.5,-36 94.5,0 211.5,0 211.5,-36"/>
<text text-anchor="middle" x="153" y="-14.9" font-family="Helvetica,sans-Serif" font-size="12.00">SeuratClusterStats</text>
</g>
<!-- IntegratingTCR -->
<g id="node4" class="node">
<title>IntegratingTCR</title>
<g id="a_node4"><a xlink:title="Attach TCR clone information as meta columns to Seurat object">
<path fill="none" stroke="black" d="M152,-108C152,-108 78,-108 78,-108 72,-108 66,-102 66,-96 66,-96 66,-84 66,-84 66,-78 72,-72 78,-72 78,-72 152,-72 152,-72 158,-72 164,-78 164,-84 164,-84 164,-96 164,-96 164,-102 158,-108 152,-108"/>
<text text-anchor="middle" x="115" y="-86.9" font-family="Helvetica,sans-Serif" font-size="12.00">IntegratingTCR</text>
</a>
</g>
</g>
<!-- IntegratingTCR&#45;&gt;Immunarch -->
<g id="edge9" class="edge">
<title>IntegratingTCR&#45;&gt;Immunarch</title>
<path fill="none" stroke="black" d="M95.97,-71.7C85.99,-62.63 73.64,-51.4 62.92,-41.65"/>
<polygon fill="black" stroke="black" points="64.62,-39.41 56.81,-36.1 60.85,-43.56 64.62,-39.41"/>
</g>
<!-- IntegratingTCR&#45;&gt;SeuratClusterStats -->
<g id="edge1" class="edge">
<title>IntegratingTCR&#45;&gt;SeuratClusterStats</title>
<path fill="none" stroke="black" d="M124.39,-71.7C129.04,-63.14 134.73,-52.66 139.81,-43.3"/>
<polygon fill="black" stroke="black" points="142.36,-44.47 143.71,-36.1 137.44,-41.8 142.36,-44.47"/>
</g>
<!-- SampleInfo -->
<g id="node5" class="node">
<title>SampleInfo</title>
<g id="a_node5"><a xlink:title="List sample information and perform statistics">
<polygon fill="none" stroke="black" points="124,-396 56.93,-378 124,-360 191.07,-378 124,-396"/>
<text text-anchor="middle" x="124" y="-374.9" font-family="Helvetica,sans-Serif" font-size="12.00">SampleInfo</text>
</a>
</g>
</g>
<!-- ImmunarchLoading -->
<g id="node6" class="node">
<title>ImmunarchLoading</title>
<g id="a_node6"><a xlink:title="Immuarch &#45; Loading data">
<path fill="none" stroke="black" d="M116.5,-180C116.5,-180 21.5,-180 21.5,-180 15.5,-180 9.5,-174 9.5,-168 9.5,-168 9.5,-156 9.5,-156 9.5,-150 15.5,-144 21.5,-144 21.5,-144 116.5,-144 116.5,-144 122.5,-144 128.5,-150 128.5,-156 128.5,-156 128.5,-168 128.5,-168 128.5,-174 122.5,-180 116.5,-180"/>
<text text-anchor="middle" x="69" y="-158.9" font-family="Helvetica,sans-Serif" font-size="12.00">ImmunarchLoading</text>
</a>
</g>
</g>
<!-- SampleInfo&#45;&gt;ImmunarchLoading -->
<g id="edge7" class="edge">
<title>SampleInfo&#45;&gt;ImmunarchLoading</title>
<path fill="none" stroke="black" d="M119.87,-360.92C110.36,-323.93 86.89,-232.62 75.46,-188.15"/>
<polygon fill="black" stroke="black" points="78.11,-187.21 73.41,-180.16 72.69,-188.61 78.11,-187.21"/>
</g>
<!-- SeuratPreparing -->
<g id="node9" class="node">
<title>SeuratPreparing</title>
<g id="a_node9"><a xlink:title="Load, prepare and apply QC to data, using `Seurat`">
<path fill="none" stroke="black" d="M218,-324C218,-324 138,-324 138,-324 132,-324 126,-318 126,-312 126,-312 126,-300 126,-300 126,-294 132,-288 138,-288 138,-288 218,-288 218,-288 224,-288 230,-294 230,-300 230,-300 230,-312 230,-312 230,-318 224,-324 218,-324"/>
<text text-anchor="middle" x="178" y="-302.9" font-family="Helvetica,sans-Serif" font-size="12.00">SeuratPreparing</text>
</a>
</g>
</g>
<!-- SampleInfo&#45;&gt;SeuratPreparing -->
<g id="edge3" class="edge">
<title>SampleInfo&#45;&gt;SeuratPreparing</title>
<path fill="none" stroke="black" d="M134.93,-362.83C142.07,-353.57 151.58,-341.25 159.85,-330.53"/>
<polygon fill="black" stroke="black" points="162.13,-332.16 164.8,-324.11 157.7,-328.74 162.13,-332.16"/>
</g>
<!-- ImmunarchLoading&#45;&gt;Immunarch -->
<g id="edge8" class="edge">
<title>ImmunarchLoading&#45;&gt;Immunarch</title>
<path fill="none" stroke="black" d="M65.06,-143.83C62.69,-133.46 59.63,-119.98 57,-108 52.28,-86.52 47.07,-62.08 43.3,-44.25"/>
<polygon fill="black" stroke="black" points="45.97,-43.33 41.58,-36.08 40.49,-44.48 45.97,-43.33"/>
</g>
<!-- ImmunarchLoading&#45;&gt;IntegratingTCR -->
<g id="edge2" class="edge">
<title>ImmunarchLoading&#45;&gt;IntegratingTCR</title>
<path fill="none" stroke="black" d="M80.37,-143.7C86.05,-135.05 93.02,-124.45 99.21,-115.03"/>
<polygon fill="black" stroke="black" points="101.71,-116.33 103.76,-108.1 97.03,-113.25 101.71,-116.33"/>
</g>
<!-- SeuratClustering -->
<g id="node7" class="node">
<title>SeuratClustering</title>
<g id="a_node7"><a xlink:title="Cluster all T cells or selected T cells selected by `TCellSelection`.">
<path fill="none" stroke="black" d="M241.5,-180C241.5,-180 158.5,-180 158.5,-180 152.5,-180 146.5,-174 146.5,-168 146.5,-168 146.5,-156 146.5,-156 146.5,-150 152.5,-144 158.5,-144 158.5,-144 241.5,-144 241.5,-144 247.5,-144 253.5,-150 253.5,-156 253.5,-156 253.5,-168 253.5,-168 253.5,-174 247.5,-180 241.5,-180"/>
<text text-anchor="middle" x="200" y="-158.9" font-family="Helvetica,sans-Serif" font-size="12.00">SeuratClustering</text>
</a>
</g>
</g>
<!-- SeuratClustering&#45;&gt;ClusterMarkers -->
<g id="edge4" class="edge">
<title>SeuratClustering&#45;&gt;ClusterMarkers</title>
<path fill="none" stroke="black" d="M207.66,-143.7C211.42,-135.22 216,-124.86 220.11,-115.58"/>
<polygon fill="black" stroke="black" points="222.75,-116.55 223.43,-108.1 217.63,-114.29 222.75,-116.55"/>
</g>
<!-- SeuratClustering&#45;&gt;IntegratingTCR -->
<g id="edge10" class="edge">
<title>SeuratClustering&#45;&gt;IntegratingTCR</title>
<path fill="none" stroke="black" d="M178.99,-143.7C167.87,-134.54 154.09,-123.19 142.17,-113.38"/>
<polygon fill="black" stroke="black" points="143.73,-111.03 135.77,-108.1 140.17,-115.35 143.73,-111.03"/>
</g>
<!-- ModuleScoreCalculator -->
<g id="node8" class="node">
<title>ModuleScoreCalculator</title>
<g id="a_node8"><a xlink:title="Calculate the module scores for each cell">
<path fill="none" stroke="black" d="M251.5,-252C251.5,-252 132.5,-252 132.5,-252 126.5,-252 120.5,-246 120.5,-240 120.5,-240 120.5,-228 120.5,-228 120.5,-222 126.5,-216 132.5,-216 132.5,-216 251.5,-216 251.5,-216 257.5,-216 263.5,-222 263.5,-228 263.5,-228 263.5,-240 263.5,-240 263.5,-246 257.5,-252 251.5,-252"/>
<text text-anchor="middle" x="192" y="-230.9" font-family="Helvetica,sans-Serif" font-size="12.00">ModuleScoreCalculator</text>
</a>
</g>
</g>
<!-- ModuleScoreCalculator&#45;&gt;SeuratClustering -->
<g id="edge6" class="edge">
<title>ModuleScoreCalculator&#45;&gt;SeuratClustering</title>
<path fill="none" stroke="black" d="M193.98,-215.7C194.93,-207.39 196.08,-197.28 197.13,-188.14"/>
<polygon fill="black" stroke="black" points="199.92,-188.37 198.05,-180.1 194.35,-187.73 199.92,-188.37"/>
</g>
<!-- SeuratPreparing&#45;&gt;ModuleScoreCalculator -->
<g id="edge5" class="edge">
<title>SeuratPreparing&#45;&gt;ModuleScoreCalculator</title>
<path fill="none" stroke="black" d="M181.46,-287.7C183.12,-279.39 185.14,-269.28 186.97,-260.14"/>
<polygon fill="black" stroke="black" points="189.76,-260.5 188.58,-252.1 184.26,-259.4 189.76,-260.5"/>
</g>
</g>
</svg>
