<?xml version="1.0" encoding="UTF-8" standalone="no"?>
<!DOCTYPE svg PUBLIC "-//W3C//DTD SVG 1.1//EN"
 "http://www.w3.org/Graphics/SVG/1.1/DTD/svg11.dtd">
<!-- Generated by graphviz version 3.0.0 (20220315.2325)
 -->
<!-- Title: Immunopipe Pages: 1 -->
<svg width="288pt" height="442pt"
 viewBox="0.00 0.00 288.00 442.00" xmlns="http://www.w3.org/2000/svg" xmlns:xlink="http://www.w3.org/1999/xlink">
<g id="graph0" class="graph" transform="scale(1 1) rotate(0) translate(4 438)">
<title>Immunopipe</title>
<polygon fill="white" stroke="transparent" points="-4,4 -4,-438 284,-438 284,4 -4,4"/>
<text text-anchor="middle" x="140" y="-418.8" font-family="Helvetica,sans-Serif" font-size="14.00">Immunopipe</text>
<text text-anchor="middle" x="140" y="-403.8" font-family="Helvetica,sans-Serif" font-size="14.00"> </text>
<!-- IntegratingTCR -->
<g id="node1" class="node">
<title>IntegratingTCR</title>
<g id="a_node1"><a xlink:title="Attach TCR clone information as meta columns to Seurat object">
<path fill="none" stroke="black" d="M202,-108C202,-108 128,-108 128,-108 122,-108 116,-102 116,-96 116,-96 116,-84 116,-84 116,-78 122,-72 128,-72 128,-72 202,-72 202,-72 208,-72 214,-78 214,-84 214,-84 214,-96 214,-96 214,-102 208,-108 202,-108"/>
<text text-anchor="middle" x="165" y="-86.9" font-family="Helvetica,sans-Serif" font-size="12.00">IntegratingTCR</text>
</a>
</g>
</g>
<!-- SeuratClusterStats -->
<g id="node5" class="node">
<title>SeuratClusterStats</title>
<polygon fill="none" stroke="black" points="185.5,-36 68.5,-36 68.5,0 185.5,0 185.5,-36"/>
<text text-anchor="middle" x="127" y="-14.9" font-family="Helvetica,sans-Serif" font-size="12.00">SeuratClusterStats</text>
</g>
<!-- IntegratingTCR&#45;&gt;SeuratClusterStats -->
<g id="edge3" class="edge">
<title>IntegratingTCR&#45;&gt;SeuratClusterStats</title>
<path fill="none" stroke="black" d="M155.61,-71.7C150.96,-63.14 145.27,-52.66 140.19,-43.3"/>
<polygon fill="black" stroke="black" points="142.56,-41.8 136.29,-36.1 137.64,-44.47 142.56,-41.8"/>
</g>
<!-- Immunarch -->
<g id="node6" class="node">
<title>Immunarch</title>
<g id="a_node6"><a xlink:title="Exploration of Single&#45;cell and Bulk T&#45;cell/Antibody Immune Repertoires">
<polygon fill="none" stroke="black" points="280,-36 204,-36 204,0 280,0 280,-36"/>
<text text-anchor="middle" x="242" y="-14.9" font-family="Helvetica,sans-Serif" font-size="12.00">Immunarch</text>
</a>
</g>
</g>
<!-- IntegratingTCR&#45;&gt;Immunarch -->
<g id="edge9" class="edge">
<title>IntegratingTCR&#45;&gt;Immunarch</title>
<path fill="none" stroke="black" d="M184.03,-71.7C194.01,-62.63 206.36,-51.4 217.08,-41.65"/>
<polygon fill="black" stroke="black" points="219.15,-43.56 223.19,-36.1 215.38,-39.41 219.15,-43.56"/>
</g>
<!-- SeuratPreparing -->
<g id="node2" class="node">
<title>SeuratPreparing</title>
<g id="a_node2"><a xlink:title="Load, prepare and apply QC to data, using `Seurat`">
<path fill="none" stroke="black" d="M153,-324C153,-324 73,-324 73,-324 67,-324 61,-318 61,-312 61,-312 61,-300 61,-300 61,-294 67,-288 73,-288 73,-288 153,-288 153,-288 159,-288 165,-294 165,-300 165,-300 165,-312 165,-312 165,-318 159,-324 153,-324"/>
<text text-anchor="middle" x="113" y="-302.9" font-family="Helvetica,sans-Serif" font-size="12.00">SeuratPreparing</text>
</a>
</g>
</g>
<!-- ModuleScoreCalculator -->
<g id="node9" class="node">
<title>ModuleScoreCalculator</title>
<g id="a_node9"><a xlink:title="Calculate the module scores for each cell">
<path fill="none" stroke="black" d="M154.5,-252C154.5,-252 35.5,-252 35.5,-252 29.5,-252 23.5,-246 23.5,-240 23.5,-240 23.5,-228 23.5,-228 23.5,-222 29.5,-216 35.5,-216 35.5,-216 154.5,-216 154.5,-216 160.5,-216 166.5,-222 166.5,-228 166.5,-228 166.5,-240 166.5,-240 166.5,-246 160.5,-252 154.5,-252"/>
<text text-anchor="middle" x="95" y="-230.9" font-family="Helvetica,sans-Serif" font-size="12.00">ModuleScoreCalculator</text>
</a>
</g>
</g>
<!-- SeuratPreparing&#45;&gt;ModuleScoreCalculator -->
<g id="edge5" class="edge">
<title>SeuratPreparing&#45;&gt;ModuleScoreCalculator</title>
<path fill="none" stroke="black" d="M108.55,-287.7C106.39,-279.3 103.76,-269.07 101.39,-259.86"/>
<polygon fill="black" stroke="black" points="104.1,-259.15 99.4,-252.1 98.68,-260.55 104.1,-259.15"/>
</g>
<!-- SampleInfo -->
<g id="node3" class="node">
<title>SampleInfo</title>
<g id="a_node3"><a xlink:title="List sample information and perform statistics">
<polygon fill="none" stroke="black" points="153,-396 85.93,-378 153,-360 220.07,-378 153,-396"/>
<text text-anchor="middle" x="153" y="-374.9" font-family="Helvetica,sans-Serif" font-size="12.00">SampleInfo</text>
</a>
</g>
</g>
<!-- SampleInfo&#45;&gt;SeuratPreparing -->
<g id="edge1" class="edge">
<title>SampleInfo&#45;&gt;SeuratPreparing</title>
<path fill="none" stroke="black" d="M144.52,-362.15C139.39,-353.18 132.72,-341.52 126.85,-331.23"/>
<polygon fill="black" stroke="black" points="129.14,-329.6 122.74,-324.04 124.28,-332.38 129.14,-329.6"/>
</g>
<!-- ImmunarchLoading -->
<g id="node8" class="node">
<title>ImmunarchLoading</title>
<g id="a_node8"><a xlink:title="Immuarch &#45; Loading data">
<path fill="none" stroke="black" d="M258.5,-180C258.5,-180 163.5,-180 163.5,-180 157.5,-180 151.5,-174 151.5,-168 151.5,-168 151.5,-156 151.5,-156 151.5,-150 157.5,-144 163.5,-144 163.5,-144 258.5,-144 258.5,-144 264.5,-144 270.5,-150 270.5,-156 270.5,-156 270.5,-168 270.5,-168 270.5,-174 264.5,-180 258.5,-180"/>
<text text-anchor="middle" x="211" y="-158.9" font-family="Helvetica,sans-Serif" font-size="12.00">ImmunarchLoading</text>
</a>
</g>
</g>
<!-- SampleInfo&#45;&gt;ImmunarchLoading -->
<g id="edge6" class="edge">
<title>SampleInfo&#45;&gt;ImmunarchLoading</title>
<path fill="none" stroke="black" d="M159.88,-361.45C164.33,-351.01 170,-336.85 174,-324 188.7,-276.74 200.4,-220.03 206.46,-188.09"/>
<polygon fill="black" stroke="black" points="209.22,-188.52 207.94,-180.15 203.72,-187.49 209.22,-188.52"/>
</g>
<!-- SeuratClustering -->
<g id="node4" class="node">
<title>SeuratClustering</title>
<g id="a_node4"><a xlink:title="Cluster all T cells or selected T cells selected by `TCellSelection`.">
<path fill="none" stroke="black" d="M121.5,-180C121.5,-180 38.5,-180 38.5,-180 32.5,-180 26.5,-174 26.5,-168 26.5,-168 26.5,-156 26.5,-156 26.5,-150 32.5,-144 38.5,-144 38.5,-144 121.5,-144 121.5,-144 127.5,-144 133.5,-150 133.5,-156 133.5,-156 133.5,-168 133.5,-168 133.5,-174 127.5,-180 121.5,-180"/>
<text text-anchor="middle" x="80" y="-158.9" font-family="Helvetica,sans-Serif" font-size="12.00">SeuratClustering</text>
</a>
</g>
</g>
<!-- SeuratClustering&#45;&gt;IntegratingTCR -->
<g id="edge4" class="edge">
<title>SeuratClustering&#45;&gt;IntegratingTCR</title>
<path fill="none" stroke="black" d="M101.01,-143.7C112.13,-134.54 125.91,-123.19 137.83,-113.38"/>
<polygon fill="black" stroke="black" points="139.83,-115.35 144.23,-108.1 136.27,-111.03 139.83,-115.35"/>
</g>
<!-- ClusterMarkers -->
<g id="node7" class="node">
<title>ClusterMarkers</title>
<g id="a_node7"><a xlink:title="Markers for clusters of all or selected T cells.">
<polygon fill="none" stroke="black" points="98,-108 0,-108 0,-72 98,-72 98,-108"/>
<text text-anchor="middle" x="49" y="-86.9" font-family="Helvetica,sans-Serif" font-size="12.00">ClusterMarkers</text>
</a>
</g>
</g>
<!-- SeuratClustering&#45;&gt;ClusterMarkers -->
<g id="edge10" class="edge">
<title>SeuratClustering&#45;&gt;ClusterMarkers</title>
<path fill="none" stroke="black" d="M72.34,-143.7C68.58,-135.22 64,-124.86 59.89,-115.58"/>
<polygon fill="black" stroke="black" points="62.37,-114.29 56.57,-108.1 57.25,-116.55 62.37,-114.29"/>
</g>
<!-- ImmunarchLoading&#45;&gt;IntegratingTCR -->
<g id="edge7" class="edge">
<title>ImmunarchLoading&#45;&gt;IntegratingTCR</title>
<path fill="none" stroke="black" d="M199.63,-143.7C193.95,-135.05 186.98,-124.45 180.79,-115.03"/>
<polygon fill="black" stroke="black" points="182.97,-113.25 176.24,-108.1 178.29,-116.33 182.97,-113.25"/>
</g>
<!-- ImmunarchLoading&#45;&gt;Immunarch -->
<g id="edge2" class="edge">
<title>ImmunarchLoading&#45;&gt;Immunarch</title>
<path fill="none" stroke="black" d="M214.94,-143.83C217.31,-133.46 220.37,-119.98 223,-108 227.72,-86.52 232.93,-62.08 236.7,-44.25"/>
<polygon fill="black" stroke="black" points="239.51,-44.48 238.42,-36.08 234.03,-43.33 239.51,-44.48"/>
</g>
<!-- ModuleScoreCalculator&#45;&gt;SeuratClustering -->
<g id="edge8" class="edge">
<title>ModuleScoreCalculator&#45;&gt;SeuratClustering</title>
<path fill="none" stroke="black" d="M91.29,-215.7C89.51,-207.39 87.35,-197.28 85.39,-188.14"/>
<polygon fill="black" stroke="black" points="88.08,-187.34 83.67,-180.1 82.6,-188.51 88.08,-187.34"/>
</g>
</g>
</svg>
